<svg xmlns="http://www.w3.org/2000/svg" viewBox="0 0 1280 620" width="1280" height="620"><defs><marker id="aGrey5" markerWidth="9" markerHeight="9" refX="6.5" refY="3.2" orient="auto" markerUnits="userSpaceOnUse"><path d="M0,0 L7,3.2 L0,6.4 Z" fill="#5A6675"/></marker></defs><rect width="1280" height="620" fill="#FFFFFF"/><text x="640.0" y="42" font-family="Helvetica Neue, Helvetica, Arial, sans-serif" font-size="22" fill="#2B3440" text-anchor="middle" font-weight="600" font-style="normal">Open world: structure recovered from pixels does not restore the symbolic linter</text><rect x="60" y="230" width="240" height="175" rx="8" ry="8" fill="#fff" stroke="#2B3440" stroke-width="2.2" opacity="1"/><rect x="76.8" y="247.5" width="108.0" height="13.125" rx="3" ry="3" fill="#3F6FB5" stroke="none" stroke-width="0" opacity="1"/><rect x="76.8" y="279.0" width="91.2" height="70.0" rx="4" ry="4" fill="#AFC6E6" stroke="none" stroke-width="0" opacity="1"/><circle cx="104.16" cy="300.0" r="7.7" fill="#FFFFFF" opacity="0.85"/><polygon points="85.92,336.4 113.28,310.5 133.344,336.4" fill="#3F6FB5" opacity="1"/><polygon points="117.84,336.4 140.64,317.5 160.704,336.4" fill="#3F6FB5" opacity="0.7"/><rect x="184.8" y="282.5" width="96.0" height="8.75" rx="3" ry="3" fill="#9AA4B0" stroke="none" stroke-width="0" opacity="1"/><rect x="184.8" y="303.5" width="96.0" height="8.75" rx="3" ry="3" fill="#9AA4B0" stroke="none" stroke-width="0" opacity="1"/><rect x="184.8" y="324.5" width="96.0" height="8.75" rx="3" ry="3" fill="#9AA4B0" stroke="none" stroke-width="0" opacity="1"/><rect x="200" y="342" width="11" height="18" rx="3" ry="3" fill="#AFC6E6" stroke="none" stroke-width="0" opacity="1"/><rect x="216" y="330" width="11" height="30" rx="3" ry="3" fill="#3F6FB5" stroke="none" stroke-width="0" opacity="1"/><rect x="232" y="320" width="11" height="40" rx="3" ry="3" fill="#4E9A6B" stroke="none" stroke-width="0" opacity="1"/><text x="180" y="432" font-family="Helvetica Neue, Helvetica, Arial, sans-serif" font-size="18" fill="#5A6675" text-anchor="middle" font-weight="400" font-style="normal">raw pixels (no IR)</text><path d="M312,317 H372" fill="none" stroke="#5A6675" stroke-width="3" stroke-linejoin="round" stroke-linecap="round" marker-end="url(#aGrey5)"/><rect x="380" y="262" width="130" height="110" rx="12" ry="12" fill="#F5F7FA" stroke="#5A6675" stroke-width="2" opacity="1"/><line x1="415" y1="297.0" x2="445" y2="312" stroke="#5A6675" stroke-width="1.4" stroke-linecap="round"/><line x1="415" y1="327.0" x2="445" y2="312" stroke="#5A6675" stroke-width="1.4" stroke-linecap="round"/><line x1="445" y1="282" x2="445" y2="312" stroke="#5A6675" stroke-width="1.4" stroke-linecap="round"/><line x1="445" y1="342" x2="445" y2="312" stroke="#5A6675" stroke-width="1.4" stroke-linecap="round"/><line x1="445" y1="312" x2="475" y2="297.0" stroke="#5A6675" stroke-width="1.4" stroke-linecap="round"/><line x1="445" y1="312" x2="475" y2="327.0" stroke="#5A6675" stroke-width="1.4" stroke-linecap="round"/><line x1="445" y1="282" x2="475" y2="297.0" stroke="#5A6675" stroke-width="1.4" stroke-linecap="round"/><line x1="445" y1="342" x2="475" y2="327.0" stroke="#5A6675" stroke-width="1.4" stroke-linecap="round"/><circle cx="415" cy="297.0" r="4.8" fill="#5A6675"/><circle cx="415" cy="327.0" r="4.8" fill="#5A6675"/><circle cx="445" cy="282" r="4.8" fill="#5A6675"/><circle cx="445" cy="312" r="4.8" fill="#5A6675"/><circle cx="445" cy="342" r="4.8" fill="#5A6675"/><circle cx="475" cy="297.0" r="4.8" fill="#5A6675"/><circle cx="475" cy="327.0" r="4.8" fill="#5A6675"/><text x="445" y="398" font-family="Helvetica Neue, Helvetica, Arial, sans-serif" font-size="18" fill="#5A6675" text-anchor="middle" font-weight="400" font-style="normal">layout parser</text><path d="M518,317 H578" fill="none" stroke="#5A6675" stroke-width="3" stroke-linejoin="round" stroke-linecap="round" marker-end="url(#aGrey5)"/><rect x="588" y="240" width="240" height="160" rx="8" ry="8" fill="#fff" stroke="#9AA4B0" stroke-width="1.6" opacity="1"/><rect x="606" y="256" width="204" height="24" rx="2" ry="2" fill="none" stroke="#7E8896" stroke-width="1.4" stroke-dasharray="5 4" opacity="1"/><rect x="606" y="290" width="100.8" height="82" rx="2" ry="2" fill="none" stroke="#7E8896" stroke-width="1.4" stroke-dasharray="5 4" opacity="1"/><rect x="708.0" y="290" width="100.8" height="54.400000000000006" rx="2" ry="2" fill="none" stroke="#7E8896" stroke-width="1.4" stroke-dasharray="5 4" opacity="1"/><rect x="708.0" y="328.0" width="100.8" height="48.0" rx="2" ry="2" fill="none" stroke="#7E8896" stroke-width="1.4" stroke-dasharray="5 4" opacity="1"/><text x="708.0" y="428" font-family="Helvetica Neue, Helvetica, Arial, sans-serif" font-size="18" fill="#5A6675" text-anchor="middle" font-weight="400" font-style="normal">recovered structure</text><text x="708.0" y="450" font-family="Helvetica Neue, Helvetica, Arial, sans-serif" font-size="14" fill="#9AA4B0" text-anchor="middle" font-weight="400" font-style="italic">(approximate, not native IR)</text><path d="M828,320 H900 V150 H958" fill="none" stroke="#5A6675" stroke-width="3" stroke-linejoin="round" stroke-linecap="round" marker-end="url(#aGrey5)"/><path d="M828,320 H900 V490 H958" fill="none" stroke="#5A6675" stroke-width="3" stroke-linejoin="round" stroke-linecap="round" marker-end="url(#aGrey5)"/><rect x="965" y="95" width="150" height="120" rx="12" ry="12" fill="#FBEDEC" stroke="#D24A43" stroke-width="2" opacity="1"/><line x1="1010" y1="135.0" x2="1070" y2="135.0" stroke="#9AA4B0" stroke-width="1" stroke-linecap="butt" stroke-dasharray="3 4"/><line x1="1025.0" y1="120" x2="1025.0" y2="180" stroke="#9AA4B0" stroke-width="1" stroke-linecap="butt" stroke-dasharray="3 4"/><line x1="1010" y1="150.0" x2="1070" y2="150.0" stroke="#9AA4B0" stroke-width="1" stroke-linecap="butt" stroke-dasharray="3 4"/><line x1="1040.0" y1="120" x2="1040.0" y2="180" stroke="#9AA4B0" stroke-width="1" stroke-linecap="butt" stroke-dasharray="3 4"/><line x1="1010" y1="165.0" x2="1070" y2="165.0" stroke="#9AA4B0" stroke-width="1" stroke-linecap="butt" stroke-dasharray="3 4"/><line x1="1055.0" y1="120" x2="1055.0" y2="180" stroke="#9AA4B0" stroke-width="1" stroke-linecap="butt" stroke-dasharray="3 4"/><polygon points="1019.0,171.0 1061.0,171.0 1019.0,133.5" fill="none" stroke="#9AA4B0" stroke-width="2.4" stroke-linejoin="round"/><line x1="1029.5" y1="171.0" x2="1029.5" y2="166.5" stroke="#9AA4B0" stroke-width="1.6" stroke-linecap="round"/><line x1="1040.0" y1="171.0" x2="1040.0" y2="166.5" stroke="#9AA4B0" stroke-width="1.6" stroke-linecap="round"/><line x1="1050.5" y1="171.0" x2="1050.5" y2="166.5" stroke="#9AA4B0" stroke-width="1.6" stroke-linecap="round"/><line x1="998" y1="108" x2="1082" y2="192" stroke="#D24A43" stroke-width="4" stroke-linecap="round"/><line x1="998" y1="192" x2="1082" y2="108" stroke="#D24A43" stroke-width="4" stroke-linecap="round"/><text x="1040" y="238" font-family="Helvetica Neue, Helvetica, Arial, sans-serif" font-size="18" fill="#D24A43" text-anchor="middle" font-weight="600" font-style="normal">symbolic linter</text><text x="1040" y="260" font-family="Helvetica Neue, Helvetica, Arial, sans-serif" font-size="15" fill="#D24A43" text-anchor="middle" font-weight="400" font-style="italic">not restored</text><rect x="965" y="430" width="150" height="120" rx="12" ry="12" fill="#fff" stroke="#3F6FB5" stroke-width="2" opacity="1"/><path d="M1014,472 Q1040,449.9 1066,472 Q1040,494.1 1014,472 Z" fill="none" stroke="#3F6FB5" stroke-width="2.4"/><circle cx="1040" cy="472" r="8.84" fill="#3F6FB5"/><rect x="1000" y="500" width="80" height="40" rx="8" ry="8" fill="#fff" stroke="#2B3440" stroke-width="1.4" opacity="1"/><rect x="1005.6" y="504.0" width="36.0" height="3.0" rx="3" ry="3" fill="#3F6FB5" stroke="none" stroke-width="0" opacity="1"/><rect x="1005.6" y="511.2" width="30.4" height="16.0" rx="4" ry="4" fill="#AFC6E6" stroke="none" stroke-width="0" opacity="1"/><circle cx="1014.72" cy="516.0" r="1.76" fill="#FFFFFF" opacity="0.85"/><polygon points="1008.64,524.3199999999999 1017.76,518.4 1024.448,524.3199999999999" fill="#3F6FB5" opacity="1"/><polygon points="1019.28,524.3199999999999 1026.88,520.0 1033.568,524.3199999999999" fill="#3F6FB5" opacity="0.7"/><rect x="1041.6" y="512.0" width="32.0" height="2.0" rx="3" ry="3" fill="#9AA4B0" stroke="none" stroke-width="0" opacity="1"/><rect x="1041.6" y="516.8" width="32.0" height="2.0" rx="3" ry="3" fill="#9AA4B0" stroke="none" stroke-width="0" opacity="1"/><text x="1030" y="575" font-family="Helvetica Neue, Helvetica, Arial, sans-serif" font-size="18" fill="#3F6FB5" text-anchor="middle" font-weight="600" font-style="normal">re-elicited VLM</text><circle cx="1108" cy="569" r="11" fill="#4E9A6B"/><path d="M1103.38,569 l3.08,3.52 l6.6,-6.82" fill="none" stroke="#fff" stroke-width="1.98" stroke-linecap="round" stroke-linejoin="round"/></svg>