<svg xmlns="http://www.w3.org/2000/svg" viewBox="0 0 1200 640" width="1200" height="640"><defs></defs><rect width="1200" height="640" fill="#FFFFFF"/><rect x="50" y="70" width="510" height="500" rx="16" ry="16" fill="#F3F5F9" stroke="#AFC6E6" stroke-width="2" opacity="1"/><circle cx="305" cy="200" r="40" fill="#E7EBF0" stroke="#5A6675" stroke-width="1.5"/><line x1="305" y1="244" x2="305" y2="300" stroke="#5A6675" stroke-width="2" stroke-linecap="round" stroke-dasharray="3 5"/><rect x="150" y="305" width="310" height="210" rx="8" ry="8" fill="#fff" stroke="#2B3440" stroke-width="2.2" opacity="1"/><rect x="171.7" y="326.0" width="139.5" height="15.75" rx="3" ry="3" fill="#3F6FB5" stroke="none" stroke-width="0" opacity="1"/><rect x="171.7" y="363.8" width="117.8" height="84.0" rx="4" ry="4" fill="#AFC6E6" stroke="none" stroke-width="0" opacity="1"/><circle cx="207.04" cy="389.0" r="9.24" fill="#FFFFFF" opacity="0.85"/><polygon points="183.48,432.68 218.82,401.6 244.736,432.68" fill="#3F6FB5" opacity="1"/><polygon points="224.70999999999998,432.68 254.15999999999997,410.0 280.076,432.68" fill="#3F6FB5" opacity="0.7"/><rect x="311.20000000000005" y="368.0" width="124.0" height="10.5" rx="3" ry="3" fill="#9AA4B0" stroke="none" stroke-width="0" opacity="1"/><rect x="311.20000000000005" y="393.2" width="124.0" height="10.5" rx="3" ry="3" fill="#9AA4B0" stroke="none" stroke-width="0" opacity="1"/><rect x="311.20000000000005" y="418.4" width="124.0" height="10.5" rx="3" ry="3" fill="#9AA4B0" stroke="none" stroke-width="0" opacity="1"/><rect x="311.20000000000005" y="443.6" width="124.0" height="10.5" rx="3" ry="3" fill="#9AA4B0" stroke="none" stroke-width="0" opacity="1"/><rect x="640" y="70" width="510" height="500" rx="16" ry="16" fill="#FBF4EC" stroke="#F2C79A" stroke-width="2" opacity="1"/><line x1="895" y1="164.0" x2="895" y2="236.0" stroke="#2B3440" stroke-width="2.6" stroke-linecap="round"/><line x1="855" y1="172.0" x2="935" y2="172.0" stroke="#2B3440" stroke-width="2.6" stroke-linecap="round"/><circle cx="895" cy="164.0" r="3.2" fill="#2B3440"/><line x1="873.0" y1="236.0" x2="917.0" y2="236.0" stroke="#2B3440" stroke-width="2.6" stroke-linecap="round"/><line x1="855" y1="172.0" x2="842.2" y2="198.0" stroke="#2B3440" stroke-width="1.6" stroke-linecap="round"/><line x1="855" y1="172.0" x2="867.8" y2="198.0" stroke="#2B3440" stroke-width="1.6" stroke-linecap="round"/><path d="M841.4,198.0 Q855,212.0 868.6,198.0 Z" fill="#3F6FB5" opacity="0.85"/><line x1="935" y1="172.0" x2="922.2" y2="198.0" stroke="#2B3440" stroke-width="1.6" stroke-linecap="round"/><line x1="935" y1="172.0" x2="947.8" y2="198.0" stroke="#2B3440" stroke-width="1.6" stroke-linecap="round"/><path d="M921.4,198.0 Q935,212.0 948.6,198.0 Z" fill="#E07F2C" opacity="0.85"/><line x1="820" y1="250" x2="820" y2="320" stroke="#5A6675" stroke-width="2" stroke-linecap="round" stroke-dasharray="3 5"/><line x1="970" y1="250" x2="970" y2="320" stroke="#5A6675" stroke-width="2" stroke-linecap="round" stroke-dasharray="3 5"/><rect x="688" y="325" width="195" height="175" rx="8" ry="8" fill="#fff" stroke="#2B3440" stroke-width="1.8" opacity="1"/><rect x="701.65" y="342.5" width="87.75" height="13.125" rx="3" ry="3" fill="#3F6FB5" stroke="none" stroke-width="0" opacity="1"/><rect x="701.65" y="374.0" width="74.1" height="70.0" rx="4" ry="4" fill="#AFC6E6" stroke="none" stroke-width="0" opacity="1"/><circle cx="723.88" cy="395.0" r="7.7" fill="#FFFFFF" opacity="0.85"/><polygon points="709.06,431.4 731.29,405.5 747.592,431.4" fill="#3F6FB5" opacity="1"/><polygon points="734.995,431.4 753.52,412.5 769.822,431.4" fill="#3F6FB5" opacity="0.7"/><rect x="789.4" y="377.5" width="78.0" height="8.75" rx="3" ry="3" fill="#9AA4B0" stroke="none" stroke-width="0" opacity="1"/><rect x="789.4" y="398.5" width="78.0" height="8.75" rx="3" ry="3" fill="#9AA4B0" stroke="none" stroke-width="0" opacity="1"/><rect x="789.4" y="419.5" width="78.0" height="8.75" rx="3" ry="3" fill="#9AA4B0" stroke="none" stroke-width="0" opacity="1"/><rect x="905" y="325" width="195" height="175" rx="8" ry="8" fill="#fff" stroke="#2B3440" stroke-width="1.8" opacity="1"/><rect x="918.65" y="342.5" width="87.75" height="13.125" rx="3" ry="3" fill="#E07F2C" stroke="none" stroke-width="0" opacity="1"/><rect x="918.65" y="374.0" width="74.1" height="70.0" rx="4" ry="4" fill="#F2C79A" stroke="none" stroke-width="0" opacity="1"/><circle cx="940.88" cy="395.0" r="7.7" fill="#FFFFFF" opacity="0.85"/><polygon points="926.06,431.4 948.29,405.5 964.592,431.4" fill="#E07F2C" opacity="1"/><polygon points="951.995,431.4 970.52,412.5 986.822,431.4" fill="#E07F2C" opacity="0.7"/><rect x="1006.4" y="377.5" width="78.0" height="8.75" rx="3" ry="3" fill="#9AA4B0" stroke="none" stroke-width="0" opacity="1"/><rect x="1006.4" y="398.5" width="78.0" height="8.75" rx="3" ry="3" fill="#9AA4B0" stroke="none" stroke-width="0" opacity="1"/><rect x="1006.4" y="419.5" width="78.0" height="8.75" rx="3" ry="3" fill="#9AA4B0" stroke="none" stroke-width="0" opacity="1"/></svg>