<svg xmlns="http://www.w3.org/2000/svg" viewBox="0 0 720 900" width="720" height="900"><defs><marker id="tGrey" markerWidth="9" markerHeight="9" refX="6.5" refY="3.2" orient="auto" markerUnits="userSpaceOnUse"><path d="M0,0 L7,3.2 L0,6.4 Z" fill="#5A6675"/></marker><marker id="tBlue" markerWidth="9" markerHeight="9" refX="6.5" refY="3.2" orient="auto" markerUnits="userSpaceOnUse"><path d="M0,0 L7,3.2 L0,6.4 Z" fill="#3F6FB5"/></marker><marker id="tOrange" markerWidth="9" markerHeight="9" refX="6.5" refY="3.2" orient="auto" markerUnits="userSpaceOnUse"><path d="M0,0 L7,3.2 L0,6.4 Z" fill="#E07F2C"/></marker><marker id="tTeal" markerWidth="9" markerHeight="9" refX="6.5" refY="3.2" orient="auto" markerUnits="userSpaceOnUse"><path d="M0,0 L7,3.2 L0,6.4 Z" fill="#2A9D8F"/></marker><marker id="tPurple" markerWidth="9" markerHeight="9" refX="6.5" refY="3.2" orient="auto" markerUnits="userSpaceOnUse"><path d="M0,0 L7,3.2 L0,6.4 Z" fill="#7A5DBB"/></marker></defs><rect width="720" height="900" fill="#FFFFFF"/><rect x="18" y="18" width="684" height="154" rx="18" ry="18" fill="#F5F7FA" stroke="#E7EBF0" stroke-width="2" opacity="1"/><rect x="36" y="36" width="184" height="116" rx="12" ry="12" fill="#FFFFFF" stroke="#3F6FB5" stroke-width="2.2" opacity="1"/><rect x="48" y="48" width="160" height="26" rx="7" ry="7" fill="#AFC6E6" stroke="none" stroke-width="0" opacity="1"/><text x="128" y="68" font-family="Arial, Helvetica, sans-serif" font-size="16" fill="#2B3440" text-anchor="middle" font-weight="600" font-style="normal">Rendered pixels</text><rect x="268" y="36" width="184" height="116" rx="12" ry="12" fill="#FFFFFF" stroke="#5A6675" stroke-width="2.2" opacity="1"/><rect x="280" y="48" width="160" height="26" rx="7" ry="7" fill="#E7EBF0" stroke="none" stroke-width="0" opacity="1"/><text x="360" y="68" font-family="Arial, Helvetica, sans-serif" font-size="16" fill="#2B3440" text-anchor="middle" font-weight="600" font-style="normal">Geometry oracle</text><rect x="500" y="36" width="184" height="116" rx="12" ry="12" fill="#FFFFFF" stroke="#2A9D8F" stroke-width="2.2" opacity="1"/><rect x="512" y="48" width="160" height="26" rx="7" ry="7" fill="#C7E8E3" stroke="none" stroke-width="0" opacity="1"/><text x="592" y="68" font-family="Arial, Helvetica, sans-serif" font-size="16" fill="#2B3440" text-anchor="middle" font-weight="600" font-style="normal">Clean reference</text><rect x="54" y="86" width="148" height="50" rx="5" ry="5" fill="#FFFFFF" stroke="#3F6FB5" stroke-width="1.4" opacity="1"/><rect x="62" y="93" width="48" height="34" rx="4" ry="4" fill="#AFC6E6" stroke="none" stroke-width="0" opacity="1"/><circle cx="76.4" cy="103.2" r="3.74" fill="#FFFFFF" opacity="0.85"/><polygon points="66.8,120.88 81.2,108.3 91.75999999999999,120.88" fill="#3F6FB5" opacity="1"/><polygon points="83.6,120.88 95.6,111.7 106.16,120.88" fill="#3F6FB5" opacity="0.7"/><rect x="120" y="95" width="72" height="5" rx="2" ry="2" fill="#9AA4B0" stroke="none" stroke-width="0" opacity="1"/><rect x="120" y="105" width="60" height="5" rx="2" ry="2" fill="#9AA4B0" stroke="none" stroke-width="0" opacity="1"/><rect x="120" y="115" width="68" height="5" rx="2" ry="2" fill="#9AA4B0" stroke="none" stroke-width="0" opacity="1"/><rect x="286" y="86" width="148" height="50" rx="5" ry="5" fill="#FFFFFF" stroke="#5A6675" stroke-width="1.4" opacity="1"/><rect x="295" y="94" width="56" height="34" rx="3" ry="3" fill="none" stroke="#3F6FB5" stroke-width="1.4" stroke-dasharray="4 3" opacity="1"/><rect x="360" y="94" width="65" height="14" rx="3" ry="3" fill="none" stroke="#5A6675" stroke-width="1.4" stroke-dasharray="4 3" opacity="1"/><rect x="360" y="114" width="65" height="14" rx="3" ry="3" fill="none" stroke="#5A6675" stroke-width="1.4" stroke-dasharray="4 3" opacity="1"/><rect x="518" y="86" width="148" height="50" rx="5" ry="5" fill="#FFFFFF" stroke="#2A9D8F" stroke-width="1.4" opacity="1"/><rect x="526" y="93" width="48" height="34" rx="4" ry="4" fill="#C7E8E3" stroke="none" stroke-width="0" opacity="1"/><circle cx="540.4" cy="103.2" r="3.74" fill="#FFFFFF" opacity="0.85"/><polygon points="530.8,120.88 545.2,108.3 555.76,120.88" fill="#2A9D8F" opacity="1"/><polygon points="547.6,120.88 559.6,111.7 570.16,120.88" fill="#2A9D8F" opacity="0.7"/><rect x="584" y="95" width="72" height="5" rx="2" ry="2" fill="#9AA4B0" stroke="none" stroke-width="0" opacity="1"/><rect x="584" y="105" width="60" height="5" rx="2" ry="2" fill="#9AA4B0" stroke="none" stroke-width="0" opacity="1"/><rect x="584" y="115" width="68" height="5" rx="2" ry="2" fill="#9AA4B0" stroke="none" stroke-width="0" opacity="1"/><circle cx="659" cy="89" r="9" fill="#2A9D8F"/><path d="M655.22,89 l2.5200000000000005,2.88 l5.3999999999999995,-5.58" fill="none" stroke="#fff" stroke-width="1.6199999999999999" stroke-linecap="round" stroke-linejoin="round"/><path d="M128,152 V188" fill="none" stroke="#5A6675" stroke-width="2.6" stroke-linejoin="round" stroke-linecap="round"/><path d="M360,152 V188" fill="none" stroke="#5A6675" stroke-width="2.6" stroke-linejoin="round" stroke-linecap="round"/><path d="M592,152 V188" fill="none" stroke="#5A6675" stroke-width="2.6" stroke-linejoin="round" stroke-linecap="round"/><path d="M128,188 H592" fill="none" stroke="#5A6675" stroke-width="2.6" stroke-linejoin="round" stroke-linecap="round"/><path d="M360,188 V207" fill="none" stroke="#5A6675" stroke-width="3" stroke-linejoin="round" stroke-linecap="round" marker-end="url(#tGrey)"/><rect x="118" y="214" width="484" height="88" rx="18" ry="18" fill="#FFFFFF" stroke="#2B3440" stroke-width="2.6" opacity="1"/><rect x="138" y="232" width="54" height="52" rx="12" ry="12" fill="#E7EBF0" stroke="none" stroke-width="0" opacity="1"/><circle cx="165" cy="258" r="10.0" fill="none" stroke="#2B3440" stroke-width="2.4"/><circle cx="165" cy="258" r="2.4" fill="#2B3440"/><line x1="155.0" y1="258.0" x2="149.0" y2="258.0" stroke="#2B3440" stroke-width="2.4" stroke-linecap="round"/><line x1="175.0" y1="258.0" x2="181.0" y2="258.0" stroke="#2B3440" stroke-width="2.4" stroke-linecap="round"/><line x1="165.0" y1="248.0" x2="165.0" y2="242.0" stroke="#2B3440" stroke-width="2.4" stroke-linecap="round"/><line x1="165.0" y1="268.0" x2="165.0" y2="274.0" stroke="#2B3440" stroke-width="2.4" stroke-linecap="round"/><text x="220" y="265" font-family="Arial, Helvetica, sans-serif" font-size="22" fill="#2B3440" text-anchor="start" font-weight="600" font-style="normal">Failure attribution</text><circle cx="459" cy="258" r="9" fill="#3F6FB5"/><circle cx="493" cy="258" r="9" fill="#E07F2C"/><circle cx="527" cy="258" r="9" fill="#2A9D8F"/><circle cx="561" cy="258" r="9" fill="#7A5DBB"/><path d="M310,302 V320 H109 V338" fill="none" stroke="#3F6FB5" stroke-width="2.5" stroke-linejoin="round" stroke-linecap="round" marker-end="url(#tBlue)"/><path d="M410,302 V320 H611 V338" fill="none" stroke="#E07F2C" stroke-width="2.5" stroke-linejoin="round" stroke-linecap="round" marker-end="url(#tOrange)"/><path d="M286,302 V326 H210 V600 H200" fill="none" stroke="#2A9D8F" stroke-width="2.5" stroke-linejoin="round" stroke-linecap="round" marker-end="url(#tTeal)"/><path d="M434,302 V326 H510 V600 H520" fill="none" stroke="#7A5DBB" stroke-width="2.5" stroke-linejoin="round" stroke-linecap="round" marker-end="url(#tPurple)"/><path d="M109,480 V706 H360" fill="none" stroke="#3F6FB5" stroke-width="2.5" stroke-linejoin="round" stroke-linecap="round"/><path d="M611,480 V706 H360" fill="none" stroke="#E07F2C" stroke-width="2.5" stroke-linejoin="round" stroke-linecap="round"/><path d="M109,668 V706 H360" fill="none" stroke="#2A9D8F" stroke-width="2.5" stroke-linejoin="round" stroke-linecap="round"/><path d="M611,668 V706 H360" fill="none" stroke="#7A5DBB" stroke-width="2.5" stroke-linejoin="round" stroke-linecap="round"/><rect x="24" y="344" width="170" height="136" rx="14" ry="14" fill="#FFFFFF" stroke="#3F6FB5" stroke-width="2.4" opacity="1"/><rect x="34" y="354" width="150" height="30" rx="8" ry="8" fill="#AFC6E6" stroke="none" stroke-width="0" opacity="1"/><text x="109" y="376" font-family="Arial, Helvetica, sans-serif" font-size="15" fill="#2B3440" text-anchor="middle" font-weight="600" font-style="normal">Symbolic linter</text><line x1="81" y1="417.0" x2="137" y2="417.0" stroke="#3F6FB5" stroke-width="1" stroke-linecap="butt" stroke-dasharray="3 4"/><line x1="95.0" y1="403" x2="95.0" y2="459" stroke="#3F6FB5" stroke-width="1" stroke-linecap="butt" stroke-dasharray="3 4"/><line x1="81" y1="431.0" x2="137" y2="431.0" stroke="#3F6FB5" stroke-width="1" stroke-linecap="butt" stroke-dasharray="3 4"/><line x1="109.0" y1="403" x2="109.0" y2="459" stroke="#3F6FB5" stroke-width="1" stroke-linecap="butt" stroke-dasharray="3 4"/><line x1="81" y1="445.0" x2="137" y2="445.0" stroke="#3F6FB5" stroke-width="1" stroke-linecap="butt" stroke-dasharray="3 4"/><line x1="123.0" y1="403" x2="123.0" y2="459" stroke="#3F6FB5" stroke-width="1" stroke-linecap="butt" stroke-dasharray="3 4"/><polygon points="89.4,450.6 128.6,450.6 89.4,415.6" fill="none" stroke="#3F6FB5" stroke-width="2.4" stroke-linejoin="round"/><line x1="99.2" y1="450.6" x2="99.2" y2="446.4" stroke="#3F6FB5" stroke-width="1.6" stroke-linecap="round"/><line x1="109.0" y1="450.6" x2="109.0" y2="446.4" stroke="#3F6FB5" stroke-width="1.6" stroke-linecap="round"/><line x1="118.80000000000001" y1="450.6" x2="118.80000000000001" y2="446.4" stroke="#3F6FB5" stroke-width="1.6" stroke-linecap="round"/><rect x="526" y="344" width="170" height="136" rx="14" ry="14" fill="#FFFFFF" stroke="#E07F2C" stroke-width="2.4" opacity="1"/><rect x="536" y="354" width="150" height="30" rx="8" ry="8" fill="#F2C79A" stroke="none" stroke-width="0" opacity="1"/><text x="611" y="376" font-family="Arial, Helvetica, sans-serif" font-size="15" fill="#2B3440" text-anchor="middle" font-weight="600" font-style="normal">Atomic VLM</text><path d="M582,431 Q611,406.35 640,431 Q611,455.65 582,431 Z" fill="none" stroke="#E07F2C" stroke-width="2.4"/><circle cx="611" cy="431" r="9.860000000000001" fill="#E07F2C"/><rect x="24" y="532" width="170" height="136" rx="14" ry="14" fill="#FFFFFF" stroke="#2A9D8F" stroke-width="2.4" opacity="1"/><rect x="34" y="542" width="150" height="30" rx="8" ry="8" fill="#C7E8E3" stroke="none" stroke-width="0" opacity="1"/><text x="109" y="564" font-family="Arial, Helvetica, sans-serif" font-size="15" fill="#2B3440" text-anchor="middle" font-weight="600" font-style="normal">Reference check</text><rect x="62" y="595" width="44" height="51" rx="5" ry="5" fill="#fff" stroke="#2A9D8F" stroke-width="1.8" opacity="1"/><rect x="112" y="595" width="44" height="51" rx="5" ry="5" fill="#fff" stroke="#2A9D8F" stroke-width="1.8" opacity="1"/><line x1="97" y1="620" x2="121" y2="620" stroke="#2A9D8F" stroke-width="2.2" stroke-linecap="round"/><circle cx="150" cy="643" r="9" fill="#2A9D8F"/><path d="M146.22,643 l2.5200000000000005,2.88 l5.3999999999999995,-5.58" fill="none" stroke="#fff" stroke-width="1.6199999999999999" stroke-linecap="round" stroke-linejoin="round"/><rect x="526" y="532" width="170" height="136" rx="14" ry="14" fill="#FFFFFF" stroke="#7A5DBB" stroke-width="2.4" opacity="1"/><rect x="536" y="542" width="150" height="30" rx="8" ry="8" fill="#DDD4F0" stroke="none" stroke-width="0" opacity="1"/><text x="611" y="564" font-family="Arial, Helvetica, sans-serif" font-size="15" fill="#2B3440" text-anchor="middle" font-weight="600" font-style="normal">Semantic examiner</text><line x1="581" y1="620" x2="610" y2="598" stroke="#7A5DBB" stroke-width="1.8" stroke-linecap="round"/><line x1="610" y1="598" x2="642" y2="620" stroke="#7A5DBB" stroke-width="1.8" stroke-linecap="round"/><line x1="642" y1="620" x2="610" y2="643" stroke="#7A5DBB" stroke-width="1.8" stroke-linecap="round"/><line x1="610" y1="643" x2="581" y2="620" stroke="#7A5DBB" stroke-width="1.8" stroke-linecap="round"/><line x1="581" y1="620" x2="642" y2="620" stroke="#7A5DBB" stroke-width="1.8" stroke-linecap="round"/><circle cx="581" cy="620" r="7" fill="#7A5DBB"/><circle cx="610" cy="598" r="7" fill="#7A5DBB"/><circle cx="642" cy="620" r="7" fill="#7A5DBB"/><circle cx="610" cy="643" r="7" fill="#7A5DBB"/><rect x="212" y="334" width="296" height="344" rx="18" ry="18" fill="#F5F7FA" stroke="#2B3440" stroke-width="2.6" opacity="1"/><rect x="228" y="350" width="264" height="38" rx="9" ry="9" fill="#E7EBF0" stroke="none" stroke-width="0" opacity="1"/><text x="360" y="376" font-family="Arial, Helvetica, sans-serif" font-size="18" fill="#2B3440" text-anchor="middle" font-weight="600" font-style="normal">Rendered overflow</text><rect x="258" y="414" width="204" height="86" rx="8" ry="8" fill="#FFFFFF" stroke="#7E8896" stroke-width="2" stroke-dasharray="7 5" opacity="1"/><rect x="274" y="429" width="38" height="38" rx="5" ry="5" fill="#AFC6E6" stroke="none" stroke-width="0" opacity="1"/><rect x="326" y="432" width="112" height="8" rx="3" ry="3" fill="#9AA4B0" stroke="none" stroke-width="0" opacity="1"/><rect x="326" y="448" width="92" height="8" rx="3" ry="3" fill="#9AA4B0" stroke="none" stroke-width="0" opacity="1"/><rect x="258" y="535" width="204" height="86" rx="8" ry="8" fill="#FFFFFF" stroke="#7E8896" stroke-width="2" stroke-dasharray="7 5" opacity="1"/><rect x="274" y="550" width="38" height="38" rx="5" ry="5" fill="#AFC6E6" stroke="none" stroke-width="0" opacity="1"/><rect x="326" y="553" width="112" height="8" rx="3" ry="3" fill="#9AA4B0" stroke="none" stroke-width="0" opacity="1"/><rect x="326" y="569" width="92" height="8" rx="3" ry="3" fill="#9AA4B0" stroke="none" stroke-width="0" opacity="1"/><circle cx="476" cy="428" r="12" fill="#4E9A6B"/><path d="M470.96,428 l3.3600000000000003,3.84 l7.199999999999999,-7.4399999999999995" fill="none" stroke="#fff" stroke-width="2.16" stroke-linecap="round" stroke-linejoin="round"/><rect x="326" y="581" width="154" height="8" rx="3" ry="3" fill="#E07F2C" stroke="none" stroke-width="0" opacity="1"/><path d="M466,593 C486,601 490,614 476,628" fill="none" stroke="#E07F2C" stroke-width="2.4" stroke-linejoin="round" stroke-linecap="round" marker-end="url(#tOrange)"/><path d="M443,647 Q461,631.7 479,647 Q461,662.3 443,647 Z" fill="none" stroke="#E07F2C" stroke-width="2.4"/><circle cx="461" cy="647" r="6.12" fill="#E07F2C"/><circle cx="245" cy="549" r="12" fill="#D24A43"/><path d="M240.2,544.2 l9.600000000000001,9.600000000000001 M240.2,553.8 l9.600000000000001,-9.600000000000001" stroke="#fff" stroke-width="2.16" stroke-linecap="round"/><line x1="238" y1="518" x2="482" y2="518" stroke="#9AA4B0" stroke-width="1.5" stroke-linecap="round" stroke-dasharray="3 5"/><path d="M360,678 V724" fill="none" stroke="#2B3440" stroke-width="3" stroke-linejoin="round" stroke-linecap="round" marker-end="url(#tGrey)"/><rect x="116" y="730" width="488" height="94" rx="18" ry="18" fill="#FFFFFF" stroke="#2B3440" stroke-width="2.8" opacity="1"/><rect x="136" y="748" width="58" height="58" rx="14" ry="14" fill="#E7EBF0" stroke="none" stroke-width="0" opacity="1"/><line x1="165" y1="757.2" x2="165" y2="796.8" stroke="#2B3440" stroke-width="2.6" stroke-linecap="round"/><line x1="143" y1="761.6" x2="187" y2="761.6" stroke="#2B3440" stroke-width="2.6" stroke-linecap="round"/><circle cx="165" cy="757.2" r="3.2" fill="#2B3440"/><line x1="152.9" y1="796.8" x2="177.1" y2="796.8" stroke="#2B3440" stroke-width="2.6" stroke-linecap="round"/><line x1="143" y1="761.6" x2="135.96" y2="775.9" stroke="#2B3440" stroke-width="1.6" stroke-linecap="round"/><line x1="143" y1="761.6" x2="150.04" y2="775.9" stroke="#2B3440" stroke-width="1.6" stroke-linecap="round"/><path d="M135.52,775.9 Q143,783.6 150.48,775.9 Z" fill="#3F6FB5" opacity="0.85"/><line x1="187" y1="761.6" x2="179.96" y2="775.9" stroke="#2B3440" stroke-width="1.6" stroke-linecap="round"/><line x1="187" y1="761.6" x2="194.04" y2="775.9" stroke="#2B3440" stroke-width="1.6" stroke-linecap="round"/><path d="M179.52,775.9 Q187,783.6 194.48,775.9 Z" fill="#E07F2C" opacity="0.85"/><text x="220" y="785" font-family="Arial, Helvetica, sans-serif" font-size="22" fill="#2B3440" text-anchor="start" font-weight="600" font-style="normal">Hybrid critic</text><circle cx="488" cy="777" r="10" fill="#3F6FB5" opacity="0.9"/><circle cx="522" cy="777" r="10" fill="#E07F2C" opacity="0.9"/><circle cx="556" cy="777" r="10" fill="#2A9D8F" opacity="0.9"/><path d="M360,824 V840 H156 V850" fill="none" stroke="#5A6675" stroke-width="2.2" stroke-linejoin="round" stroke-linecap="round"/><rect x="72" y="850" width="168" height="42" rx="12" ry="12" fill="#FFFFFF" stroke="#3F6FB5" stroke-width="2" opacity="1"/><path d="M87,871 Q100,859.95 113,871 Q100,882.05 87,871 Z" fill="none" stroke="#3F6FB5" stroke-width="2.4"/><circle cx="100" cy="871" r="4.42" fill="#3F6FB5"/><text x="124" y="878" font-family="Arial, Helvetica, sans-serif" font-size="18" fill="#2B3440" text-anchor="start" font-weight="600" font-style="normal">Detect</text><path d="M360,824 V840 H360 V850" fill="none" stroke="#5A6675" stroke-width="2.2" stroke-linejoin="round" stroke-linecap="round"/><rect x="276" y="850" width="168" height="42" rx="12" ry="12" fill="#FFFFFF" stroke="#E07F2C" stroke-width="2" opacity="1"/><circle cx="304" cy="871" r="6.5" fill="none" stroke="#E07F2C" stroke-width="2.4"/><circle cx="304" cy="871" r="1.56" fill="#E07F2C"/><line x1="297.5" y1="871.0" x2="293.6" y2="871.0" stroke="#E07F2C" stroke-width="2.4" stroke-linecap="round"/><line x1="310.5" y1="871.0" x2="314.4" y2="871.0" stroke="#E07F2C" stroke-width="2.4" stroke-linecap="round"/><line x1="304.0" y1="864.5" x2="304.0" y2="860.6" stroke="#E07F2C" stroke-width="2.4" stroke-linecap="round"/><line x1="304.0" y1="877.5" x2="304.0" y2="881.4" stroke="#E07F2C" stroke-width="2.4" stroke-linecap="round"/><text x="328" y="878" font-family="Arial, Helvetica, sans-serif" font-size="18" fill="#2B3440" text-anchor="start" font-weight="600" font-style="normal">Localize</text><path d="M360,824 V840 H564 V850" fill="none" stroke="#5A6675" stroke-width="2.2" stroke-linejoin="round" stroke-linecap="round"/><rect x="480" y="850" width="168" height="42" rx="12" ry="12" fill="#FFFFFF" stroke="#2A9D8F" stroke-width="2" opacity="1"/><line x1="500.85" y1="878.15" x2="510.34" y2="868.66" stroke="#2A9D8F" stroke-width="3.9" stroke-linecap="round"/><path d="M515.54,862.42 a4.68,4.68 0 1 1 -4.42,1.56" fill="none" stroke="#2A9D8F" stroke-width="3.12" stroke-linecap="round"/><text x="532" y="878" font-family="Arial, Helvetica, sans-serif" font-size="18" fill="#2B3440" text-anchor="start" font-weight="600" font-style="normal">Repair</text></svg>