<svg xmlns="http://www.w3.org/2000/svg" viewBox="0 0 1200 720" width="1200" height="720"><defs></defs><rect width="1200" height="720" fill="#FFFFFF"/><text x="600.0" y="46" font-family="Helvetica Neue, Helvetica, Arial, sans-serif" font-size="22" fill="#2B3440" text-anchor="middle" font-weight="600" font-style="normal">G7 render-overflow: the declared box is legal; only the rendered pixels overflow</text><rect x="70" y="100" width="470" height="470" rx="10" ry="10" fill="#fff" stroke="#2B3440" stroke-width="2.4" opacity="1"/><circle cx="120" cy="148" r="20" fill="#9AA4B0"/><rect x="155" y="138" width="200" height="20" rx="3" ry="3" fill="#9AA4B0" stroke="none" stroke-width="0" opacity="1"/><line x1="100" y1="188" x2="510" y2="188" stroke="#E7EBF0" stroke-width="2" stroke-linecap="round"/><rect x="115" y="215" width="380" height="290" rx="4" ry="4" fill="none" stroke="#7E8896" stroke-width="2" stroke-dasharray="7 6" opacity="1"/><rect x="145" y="235.0" width="11" height="11" rx="2" fill="#9AA4B0"/><rect x="165" y="234.0" width="320" height="15" rx="3" ry="3" fill="#9AA4B0" stroke="none" stroke-width="0" opacity="1"/><rect x="145" y="275.0" width="11" height="11" rx="2" fill="#9AA4B0"/><rect x="165" y="274.0" width="320" height="15" rx="3" ry="3" fill="#9AA4B0" stroke="none" stroke-width="0" opacity="1"/><rect x="145" y="315.0" width="11" height="11" rx="2" fill="#9AA4B0"/><rect x="165" y="314.0" width="320" height="15" rx="3" ry="3" fill="#9AA4B0" stroke="none" stroke-width="0" opacity="1"/><rect x="145" y="355.0" width="11" height="11" rx="2" fill="#9AA4B0"/><rect x="165" y="354.0" width="320" height="15" rx="3" ry="3" fill="#9AA4B0" stroke="none" stroke-width="0" opacity="1"/><rect x="145" y="395.0" width="11" height="11" rx="2" fill="#9AA4B0"/><rect x="165" y="394.0" width="320" height="15" rx="3" ry="3" fill="#9AA4B0" stroke="none" stroke-width="0" opacity="1"/><rect x="145" y="435.0" width="11" height="11" rx="2" fill="#9AA4B0"/><rect x="165" y="434.0" width="320" height="15" rx="3" ry="3" fill="#9AA4B0" stroke="none" stroke-width="0" opacity="1"/><rect x="145" y="475.0" width="11" height="11" rx="2" fill="#9AA4B0"/><rect x="165" y="474.0" width="198.4" height="15" rx="3" ry="3" fill="#9AA4B0" stroke="none" stroke-width="0" opacity="1"/><rect x="470" y="530" width="40" height="12" rx="3" ry="3" fill="#9AA4B0" stroke="none" stroke-width="0" opacity="1"/><rect x="660" y="100" width="470" height="470" rx="10" ry="10" fill="#fff" stroke="#2B3440" stroke-width="2.4" opacity="1"/><circle cx="710" cy="148" r="20" fill="#9AA4B0"/><rect x="745" y="138" width="200" height="20" rx="3" ry="3" fill="#9AA4B0" stroke="none" stroke-width="0" opacity="1"/><line x1="690" y1="188" x2="1100" y2="188" stroke="#E7EBF0" stroke-width="2" stroke-linecap="round"/><rect x="705" y="215" width="380" height="290" rx="4" ry="4" fill="none" stroke="#7E8896" stroke-width="2" stroke-dasharray="7 6" opacity="1"/><rect x="735" y="235.0" width="11" height="11" rx="2" fill="#9AA4B0"/><rect x="755" y="234.0" width="320" height="15" rx="3" ry="3" fill="#9AA4B0" stroke="none" stroke-width="0" opacity="1"/><rect x="1075" y="234.0" width="40" height="15" rx="3" ry="3" fill="#D24A43" stroke="none" stroke-width="0" opacity="1"/><rect x="735" y="275.0" width="11" height="11" rx="2" fill="#9AA4B0"/><rect x="755" y="274.0" width="320" height="15" rx="3" ry="3" fill="#9AA4B0" stroke="none" stroke-width="0" opacity="1"/><rect x="1075" y="274.0" width="70" height="15" rx="3" ry="3" fill="#D24A43" stroke="none" stroke-width="0" opacity="1"/><rect x="735" y="315.0" width="11" height="11" rx="2" fill="#9AA4B0"/><rect x="755" y="314.0" width="320" height="15" rx="3" ry="3" fill="#9AA4B0" stroke="none" stroke-width="0" opacity="1"/><rect x="1075" y="314.0" width="55" height="15" rx="3" ry="3" fill="#D24A43" stroke="none" stroke-width="0" opacity="1"/><rect x="735" y="355.0" width="11" height="11" rx="2" fill="#9AA4B0"/><rect x="755" y="354.0" width="320" height="15" rx="3" ry="3" fill="#9AA4B0" stroke="none" stroke-width="0" opacity="1"/><rect x="1075" y="354.0" width="30" height="15" rx="3" ry="3" fill="#D24A43" stroke="none" stroke-width="0" opacity="1"/><rect x="735" y="395.0" width="11" height="11" rx="2" fill="#9AA4B0"/><rect x="755" y="394.0" width="320" height="15" rx="3" ry="3" fill="#9AA4B0" stroke="none" stroke-width="0" opacity="1"/><rect x="1075" y="394.0" width="95" height="15" rx="3" ry="3" fill="#D24A43" stroke="none" stroke-width="0" opacity="1"/><rect x="735" y="435.0" width="11" height="11" rx="2" fill="#9AA4B0"/><rect x="755" y="434.0" width="320" height="15" rx="3" ry="3" fill="#9AA4B0" stroke="none" stroke-width="0" opacity="1"/><rect x="1075" y="434.0" width="60" height="15" rx="3" ry="3" fill="#D24A43" stroke="none" stroke-width="0" opacity="1"/><rect x="735" y="475.0" width="11" height="11" rx="2" fill="#9AA4B0"/><rect x="755" y="474.0" width="320" height="15" rx="3" ry="3" fill="#9AA4B0" stroke="none" stroke-width="0" opacity="1"/><rect x="1075" y="474.0" width="18" height="15" rx="3" ry="3" fill="#D24A43" stroke="none" stroke-width="0" opacity="1"/><rect x="1060" y="530" width="40" height="12" rx="3" ry="3" fill="#9AA4B0" stroke="none" stroke-width="0" opacity="1"/><circle cx="305.0" cy="615" r="28" fill="#4E9A6B"/><path d="M293.24,615 l7.840000000000001,8.96 l16.8,-17.36" fill="none" stroke="#fff" stroke-width="5.04" stroke-linecap="round" stroke-linejoin="round"/><circle cx="895.0" cy="615" r="28" fill="#D24A43"/><path d="M883.8,603.8 l22.400000000000002,22.400000000000002 M883.8,626.2 l22.400000000000002,-22.400000000000002" stroke="#fff" stroke-width="5.04" stroke-linecap="round"/><text x="305.0" y="670" font-family="Helvetica Neue, Helvetica, Arial, sans-serif" font-size="20" fill="#2B3440" text-anchor="middle" font-weight="400" font-style="normal">rendered text fits the box</text><text x="895.0" y="670" font-family="Helvetica Neue, Helvetica, Arial, sans-serif" font-size="20" fill="#2B3440" text-anchor="middle" font-weight="400" font-style="normal">rendered pixels overflow the box</text><text x="600.0" y="690" font-family="Helvetica Neue, Helvetica, Arial, sans-serif" font-size="16" fill="#5A6675" text-anchor="middle" font-weight="400" font-style="italic">The linter sees two identical, legal declared boxes — it is blind to the difference by construction</text></svg>