<svg xmlns="http://www.w3.org/2000/svg" viewBox="0 0 1200 820" width="1200" height="820"><defs></defs><rect width="1200" height="820" fill="#FFFFFF"/><circle cx="391.7" cy="116.7" r="12.100000000000001" fill="none" stroke="#2B3440" stroke-width="2.6"/><line x1="401.16" y1="126.16" x2="410.4" y2="135.4" stroke="#2B3440" stroke-width="3" stroke-linecap="round"/><circle cx="685.0" cy="120" r="11.0" fill="none" stroke="#2B3440" stroke-width="2.4"/><circle cx="685.0" cy="120" r="2.6399999999999997" fill="#2B3440"/><line x1="674.0" y1="120.0" x2="667.4" y2="120.0" stroke="#2B3440" stroke-width="2.4" stroke-linecap="round"/><line x1="696.0" y1="120.0" x2="702.6" y2="120.0" stroke="#2B3440" stroke-width="2.4" stroke-linecap="round"/><line x1="685.0" y1="109.0" x2="685.0" y2="102.4" stroke="#2B3440" stroke-width="2.4" stroke-linecap="round"/><line x1="685.0" y1="131.0" x2="685.0" y2="137.6" stroke="#2B3440" stroke-width="2.4" stroke-linecap="round"/><line x1="962.9" y1="132.1" x2="978.96" y2="116.04" stroke="#2B3440" stroke-width="6.6" stroke-linecap="round"/><path d="M987.76,105.48 a7.92,7.92 0 1 1 -7.48,2.6399999999999997" fill="none" stroke="#2B3440" stroke-width="5.279999999999999" stroke-linecap="round"/><rect x="61.5" y="217.95" width="117.0" height="74.10000000000001" rx="8" ry="8" fill="#fff" stroke="#2B3440" stroke-width="1.8" opacity="1"/><rect x="69.69" y="225.35999999999999" width="52.65" height="5.5575" rx="3" ry="3" fill="#3F6FB5" stroke="none" stroke-width="0" opacity="1"/><rect x="69.69" y="238.69799999999998" width="44.46" height="29.640000000000004" rx="4" ry="4" fill="#AFC6E6" stroke="none" stroke-width="0" opacity="1"/><circle cx="83.02799999999999" cy="247.58999999999997" r="3.2604000000000006" fill="#FFFFFF" opacity="0.85"/><polygon points="74.136,263.0028 87.474,252.03599999999997 97.2552,263.0028" fill="#3F6FB5" opacity="1"/><polygon points="89.697,263.0028 100.812,254.99999999999997 110.5932,263.0028" fill="#3F6FB5" opacity="0.7"/><rect x="122.34" y="240.17999999999998" width="46.800000000000004" height="3.7050000000000005" rx="3" ry="3" fill="#9AA4B0" stroke="none" stroke-width="0" opacity="1"/><rect x="122.34" y="249.07199999999997" width="46.800000000000004" height="3.7050000000000005" rx="3" ry="3" fill="#9AA4B0" stroke="none" stroke-width="0" opacity="1"/><rect x="122.34" y="257.964" width="46.800000000000004" height="3.7050000000000005" rx="3" ry="3" fill="#9AA4B0" stroke="none" stroke-width="0" opacity="1"/><rect x="268" y="190.0" width="254" height="130" rx="8" ry="8" fill="#F5F7FA" stroke="#E7EBF0" stroke-width="1.4" opacity="1"/><rect x="313.5" y="219.85" width="111.0" height="70.3" rx="8" ry="8" fill="#fff" stroke="#2B3440" stroke-width="1.8" opacity="0.9"/><rect x="321.27" y="226.88" width="49.95" height="5.2725" rx="3" ry="3" fill="#3F6FB5" stroke="none" stroke-width="0" opacity="0.9"/><rect x="321.27" y="239.534" width="42.18" height="28.12" rx="4" ry="4" fill="#AFC6E6" stroke="none" stroke-width="0" opacity="0.9"/><circle cx="333.924" cy="247.97" r="3.0932" fill="#FFFFFF" opacity="0.765"/><polygon points="325.488,262.5924 338.142,252.188 347.42159999999996,262.5924" fill="#3F6FB5" opacity="0.9"/><polygon points="340.251,262.5924 350.796,255.0 360.0756,262.5924" fill="#3F6FB5" opacity="0.63"/><rect x="371.22" y="240.94" width="44.400000000000006" height="3.515" rx="3" ry="3" fill="#9AA4B0" stroke="none" stroke-width="0" opacity="0.9"/><rect x="371.22" y="249.376" width="44.400000000000006" height="3.515" rx="3" ry="3" fill="#9AA4B0" stroke="none" stroke-width="0" opacity="0.9"/><rect x="371.22" y="257.812" width="44.400000000000006" height="3.515" rx="3" ry="3" fill="#9AA4B0" stroke="none" stroke-width="0" opacity="0.9"/><circle cx="450.45" cy="278.45" r="9.350000000000001" fill="none" stroke="#2B3440" stroke-width="2.6"/><line x1="457.76" y1="285.76" x2="464.9" y2="292.9" stroke="#2B3440" stroke-width="3" stroke-linecap="round"/><rect x="558" y="190.0" width="254" height="130" rx="8" ry="8" fill="#F5F7FA" stroke="#E7EBF0" stroke-width="1.4" opacity="1"/><rect x="603.5" y="219.85" width="111.0" height="70.3" rx="8" ry="8" fill="#fff" stroke="#2B3440" stroke-width="1.8" opacity="0.9"/><rect x="611.27" y="226.88" width="49.95" height="5.2725" rx="3" ry="3" fill="#3F6FB5" stroke="none" stroke-width="0" opacity="0.9"/><rect x="611.27" y="239.534" width="42.18" height="28.12" rx="4" ry="4" fill="#AFC6E6" stroke="none" stroke-width="0" opacity="0.9"/><circle cx="623.924" cy="247.97" r="3.0932" fill="#FFFFFF" opacity="0.765"/><polygon points="615.4879999999999,262.5924 628.1419999999999,252.188 637.4216,262.5924" fill="#3F6FB5" opacity="0.9"/><polygon points="630.251,262.5924 640.7959999999999,255.0 650.0756,262.5924" fill="#3F6FB5" opacity="0.63"/><rect x="661.22" y="240.94" width="44.400000000000006" height="3.515" rx="3" ry="3" fill="#9AA4B0" stroke="none" stroke-width="0" opacity="0.9"/><rect x="661.22" y="249.376" width="44.400000000000006" height="3.515" rx="3" ry="3" fill="#9AA4B0" stroke="none" stroke-width="0" opacity="0.9"/><rect x="661.22" y="257.812" width="44.400000000000006" height="3.515" rx="3" ry="3" fill="#9AA4B0" stroke="none" stroke-width="0" opacity="0.9"/><circle cx="743.0" cy="281.0" r="8.5" fill="none" stroke="#2B3440" stroke-width="2.4"/><circle cx="743.0" cy="281.0" r="2.04" fill="#2B3440"/><line x1="734.5" y1="281.0" x2="729.4" y2="281.0" stroke="#2B3440" stroke-width="2.4" stroke-linecap="round"/><line x1="751.5" y1="281.0" x2="756.6" y2="281.0" stroke="#2B3440" stroke-width="2.4" stroke-linecap="round"/><line x1="743.0" y1="272.5" x2="743.0" y2="267.4" stroke="#2B3440" stroke-width="2.4" stroke-linecap="round"/><line x1="743.0" y1="289.5" x2="743.0" y2="294.6" stroke="#2B3440" stroke-width="2.4" stroke-linecap="round"/><rect x="848" y="190.0" width="254" height="130" rx="8" ry="8" fill="#F5F7FA" stroke="#E7EBF0" stroke-width="1.4" opacity="1"/><rect x="893.5" y="219.85" width="111.0" height="70.3" rx="8" ry="8" fill="#fff" stroke="#2B3440" stroke-width="1.8" opacity="0.9"/><rect x="901.27" y="226.88" width="49.95" height="5.2725" rx="3" ry="3" fill="#3F6FB5" stroke="none" stroke-width="0" opacity="0.9"/><rect x="901.27" y="239.534" width="42.18" height="28.12" rx="4" ry="4" fill="#AFC6E6" stroke="none" stroke-width="0" opacity="0.9"/><circle cx="913.924" cy="247.97" r="3.0932" fill="#FFFFFF" opacity="0.765"/><polygon points="905.4879999999999,262.5924 918.1419999999999,252.188 927.4216,262.5924" fill="#3F6FB5" opacity="0.9"/><polygon points="920.251,262.5924 930.7959999999999,255.0 940.0756,262.5924" fill="#3F6FB5" opacity="0.63"/><rect x="951.22" y="240.94" width="44.400000000000006" height="3.515" rx="3" ry="3" fill="#9AA4B0" stroke="none" stroke-width="0" opacity="0.9"/><rect x="951.22" y="249.376" width="44.400000000000006" height="3.515" rx="3" ry="3" fill="#9AA4B0" stroke="none" stroke-width="0" opacity="0.9"/><rect x="951.22" y="257.812" width="44.400000000000006" height="3.515" rx="3" ry="3" fill="#9AA4B0" stroke="none" stroke-width="0" opacity="0.9"/><line x1="1023.65" y1="290.35" x2="1036.06" y2="277.94" stroke="#2B3440" stroke-width="5.1" stroke-linecap="round"/><path d="M1042.86,269.78 a6.12,6.12 0 1 1 -5.78,2.04" fill="none" stroke="#2B3440" stroke-width="4.08" stroke-linecap="round"/><rect x="61.5" y="367.95" width="117.0" height="74.10000000000001" rx="4" ry="4" fill="none" stroke="#3F6FB5" stroke-width="1.6" stroke-dasharray="6 5" opacity="1"/><rect x="71.5" y="377.95" width="58.5" height="22.23" rx="2" ry="2" fill="none" stroke="#3F6FB5" stroke-width="1.4" stroke-dasharray="5 4" opacity="1"/><rect x="71.5" y="407.0" width="58.5" height="23.712000000000003" rx="2" ry="2" fill="none" stroke="#3F6FB5" stroke-width="1.4" stroke-dasharray="5 4" opacity="1"/><rect x="122" y="377.95" width="46.800000000000004" height="48.906000000000006" rx="2" ry="2" fill="none" stroke="#3F6FB5" stroke-width="1.4" stroke-dasharray="5 4" opacity="1"/><rect x="268" y="340.0" width="254" height="130" rx="8" ry="8" fill="#F5F7FA" stroke="#E7EBF0" stroke-width="1.4" opacity="1"/><rect x="313.5" y="369.85" width="111.0" height="70.3" rx="4" ry="4" fill="none" stroke="#3F6FB5" stroke-width="1.6" stroke-dasharray="6 5" opacity="0.9"/><rect x="323.5" y="379.85" width="55.5" height="21.09" rx="2" ry="2" fill="none" stroke="#3F6FB5" stroke-width="1.4" stroke-dasharray="5 4" opacity="0.9"/><rect x="323.5" y="407.0" width="55.5" height="22.496" rx="2" ry="2" fill="none" stroke="#3F6FB5" stroke-width="1.4" stroke-dasharray="5 4" opacity="0.9"/><rect x="371.0" y="379.85" width="44.400000000000006" height="46.398" rx="2" ry="2" fill="none" stroke="#3F6FB5" stroke-width="1.4" stroke-dasharray="5 4" opacity="0.9"/><circle cx="450.45" cy="428.45" r="9.350000000000001" fill="none" stroke="#2B3440" stroke-width="2.6"/><line x1="457.76" y1="435.76" x2="464.9" y2="442.9" stroke="#2B3440" stroke-width="3" stroke-linecap="round"/><rect x="558" y="340.0" width="254" height="130" rx="8" ry="8" fill="#F5F7FA" stroke="#E7EBF0" stroke-width="1.4" opacity="1"/><rect x="603.5" y="369.85" width="111.0" height="70.3" rx="4" ry="4" fill="none" stroke="#3F6FB5" stroke-width="1.6" stroke-dasharray="6 5" opacity="0.9"/><rect x="613.5" y="379.85" width="55.5" height="21.09" rx="2" ry="2" fill="none" stroke="#3F6FB5" stroke-width="1.4" stroke-dasharray="5 4" opacity="0.9"/><rect x="613.5" y="407.0" width="55.5" height="22.496" rx="2" ry="2" fill="none" stroke="#3F6FB5" stroke-width="1.4" stroke-dasharray="5 4" opacity="0.9"/><rect x="661.0" y="379.85" width="44.400000000000006" height="46.398" rx="2" ry="2" fill="none" stroke="#3F6FB5" stroke-width="1.4" stroke-dasharray="5 4" opacity="0.9"/><circle cx="743.0" cy="431.0" r="8.5" fill="none" stroke="#2B3440" stroke-width="2.4"/><circle cx="743.0" cy="431.0" r="2.04" fill="#2B3440"/><line x1="734.5" y1="431.0" x2="729.4" y2="431.0" stroke="#2B3440" stroke-width="2.4" stroke-linecap="round"/><line x1="751.5" y1="431.0" x2="756.6" y2="431.0" stroke="#2B3440" stroke-width="2.4" stroke-linecap="round"/><line x1="743.0" y1="422.5" x2="743.0" y2="417.4" stroke="#2B3440" stroke-width="2.4" stroke-linecap="round"/><line x1="743.0" y1="439.5" x2="743.0" y2="444.6" stroke="#2B3440" stroke-width="2.4" stroke-linecap="round"/><rect x="848" y="340.0" width="254" height="130" rx="8" ry="8" fill="#F5F7FA" stroke="#E7EBF0" stroke-width="1.4" opacity="1"/><rect x="893.5" y="369.85" width="111.0" height="70.3" rx="4" ry="4" fill="none" stroke="#3F6FB5" stroke-width="1.6" stroke-dasharray="6 5" opacity="0.9"/><rect x="903.5" y="379.85" width="55.5" height="21.09" rx="2" ry="2" fill="none" stroke="#3F6FB5" stroke-width="1.4" stroke-dasharray="5 4" opacity="0.9"/><rect x="903.5" y="407.0" width="55.5" height="22.496" rx="2" ry="2" fill="none" stroke="#3F6FB5" stroke-width="1.4" stroke-dasharray="5 4" opacity="0.9"/><rect x="951.0" y="379.85" width="44.400000000000006" height="46.398" rx="2" ry="2" fill="none" stroke="#3F6FB5" stroke-width="1.4" stroke-dasharray="5 4" opacity="0.9"/><line x1="1023.65" y1="440.35" x2="1036.06" y2="427.94" stroke="#2B3440" stroke-width="5.1" stroke-linecap="round"/><path d="M1042.86,419.78 a6.12,6.12 0 1 1 -5.78,2.04" fill="none" stroke="#2B3440" stroke-width="4.08" stroke-linecap="round"/><path d="M70.86,529.806 h98.28 a10,10 0 0 1 10,10 v29.640000000000004 a10,10 0 0 1 -10,10 h-72.54 l-12,16 v-16 h-13.739999999999998 a10,10 0 0 1 -10,-10 v-29.640000000000004 a10,10 0 0 1 10,-10 Z" fill="none" stroke="#5A6675" stroke-width="1.8" opacity="1"/><rect x="82.56" y="540.18" width="58.5" height="6" rx="3" ry="3" fill="#5A6675" stroke="none" stroke-width="0" opacity="1"/><rect x="82.56" y="555.18" width="49.14" height="6" rx="3" ry="3" fill="#5A6675" stroke="none" stroke-width="0" opacity="1"/><rect x="82.56" y="570.18" width="39.779999999999994" height="6" rx="3" ry="3" fill="#5A6675" stroke="none" stroke-width="0" opacity="1"/><rect x="268" y="490.0" width="254" height="130" rx="8" ry="8" fill="#F5F7FA" stroke="#E7EBF0" stroke-width="1.4" opacity="1"/><path d="M322.38,531.098 h93.24 a10,10 0 0 1 10,10 v28.12 a10,10 0 0 1 -10,10 h-68.82 l-12,16 v-16 h-12.420000000000002 a10,10 0 0 1 -10,-10 v-28.12 a10,10 0 0 1 10,-10 Z" fill="none" stroke="#5A6675" stroke-width="1.8" opacity="0.9"/><rect x="333.48" y="540.94" width="55.5" height="6" rx="3" ry="3" fill="#5A6675" stroke="none" stroke-width="0" opacity="0.9"/><rect x="333.48" y="555.94" width="46.62" height="6" rx="3" ry="3" fill="#5A6675" stroke="none" stroke-width="0" opacity="0.9"/><rect x="333.48" y="570.94" width="37.739999999999995" height="6" rx="3" ry="3" fill="#5A6675" stroke="none" stroke-width="0" opacity="0.9"/><circle cx="450.45" cy="578.45" r="9.350000000000001" fill="none" stroke="#2B3440" stroke-width="2.6"/><line x1="457.76" y1="585.76" x2="464.9" y2="592.9" stroke="#2B3440" stroke-width="3" stroke-linecap="round"/><rect x="558" y="490.0" width="254" height="130" rx="8" ry="8" fill="#F5F7FA" stroke="#E7EBF0" stroke-width="1.4" opacity="1"/><path d="M612.38,531.098 h93.24 a10,10 0 0 1 10,10 v28.12 a10,10 0 0 1 -10,10 h-68.82 l-12,16 v-16 h-12.420000000000002 a10,10 0 0 1 -10,-10 v-28.12 a10,10 0 0 1 10,-10 Z" fill="none" stroke="#5A6675" stroke-width="1.8" opacity="0.9"/><rect x="623.48" y="540.94" width="55.5" height="6" rx="3" ry="3" fill="#5A6675" stroke="none" stroke-width="0" opacity="0.9"/><rect x="623.48" y="555.94" width="46.62" height="6" rx="3" ry="3" fill="#5A6675" stroke="none" stroke-width="0" opacity="0.9"/><rect x="623.48" y="570.94" width="37.739999999999995" height="6" rx="3" ry="3" fill="#5A6675" stroke="none" stroke-width="0" opacity="0.9"/><circle cx="743.0" cy="581.0" r="8.5" fill="none" stroke="#2B3440" stroke-width="2.4"/><circle cx="743.0" cy="581.0" r="2.04" fill="#2B3440"/><line x1="734.5" y1="581.0" x2="729.4" y2="581.0" stroke="#2B3440" stroke-width="2.4" stroke-linecap="round"/><line x1="751.5" y1="581.0" x2="756.6" y2="581.0" stroke="#2B3440" stroke-width="2.4" stroke-linecap="round"/><line x1="743.0" y1="572.5" x2="743.0" y2="567.4" stroke="#2B3440" stroke-width="2.4" stroke-linecap="round"/><line x1="743.0" y1="589.5" x2="743.0" y2="594.6" stroke="#2B3440" stroke-width="2.4" stroke-linecap="round"/><rect x="848" y="490.0" width="254" height="130" rx="8" ry="8" fill="#F5F7FA" stroke="#E7EBF0" stroke-width="1.4" opacity="1"/><path d="M902.38,531.098 h93.24 a10,10 0 0 1 10,10 v28.12 a10,10 0 0 1 -10,10 h-68.82 l-12,16 v-16 h-12.420000000000002 a10,10 0 0 1 -10,-10 v-28.12 a10,10 0 0 1 10,-10 Z" fill="none" stroke="#5A6675" stroke-width="1.8" opacity="0.9"/><rect x="913.48" y="540.94" width="55.5" height="6" rx="3" ry="3" fill="#5A6675" stroke="none" stroke-width="0" opacity="0.9"/><rect x="913.48" y="555.94" width="46.62" height="6" rx="3" ry="3" fill="#5A6675" stroke="none" stroke-width="0" opacity="0.9"/><rect x="913.48" y="570.94" width="37.739999999999995" height="6" rx="3" ry="3" fill="#5A6675" stroke="none" stroke-width="0" opacity="0.9"/><line x1="1023.65" y1="590.35" x2="1036.06" y2="577.94" stroke="#2B3440" stroke-width="5.1" stroke-linecap="round"/><path d="M1042.86,569.78 a6.12,6.12 0 1 1 -5.78,2.04" fill="none" stroke="#2B3440" stroke-width="4.08" stroke-linecap="round"/><rect x="61.5" y="667.95" width="117.0" height="74.10000000000001" rx="8" ry="8" fill="#fff" stroke="#2B3440" stroke-width="1.6" opacity="0.55"/><rect x="69.69" y="675.36" width="52.65" height="5.5575" rx="3" ry="3" fill="#3F6FB5" stroke="none" stroke-width="0" opacity="0.55"/><rect x="69.69" y="688.6980000000001" width="44.46" height="29.640000000000004" rx="4" ry="4" fill="#AFC6E6" stroke="none" stroke-width="0" opacity="0.55"/><circle cx="83.02799999999999" cy="697.5900000000001" r="3.2604000000000006" fill="#FFFFFF" opacity="0.4675"/><polygon points="74.136,713.0028000000001 87.474,702.0360000000001 97.2552,713.0028000000001" fill="#3F6FB5" opacity="0.55"/><polygon points="89.697,713.0028000000001 100.812,705.0000000000001 110.5932,713.0028000000001" fill="#3F6FB5" opacity="0.385"/><rect x="122.34" y="690.1800000000001" width="46.800000000000004" height="3.7050000000000005" rx="3" ry="3" fill="#9AA4B0" stroke="none" stroke-width="0" opacity="0.55"/><rect x="122.34" y="699.0720000000001" width="46.800000000000004" height="3.7050000000000005" rx="3" ry="3" fill="#9AA4B0" stroke="none" stroke-width="0" opacity="0.55"/><rect x="122.34" y="707.964" width="46.800000000000004" height="3.7050000000000005" rx="3" ry="3" fill="#9AA4B0" stroke="none" stroke-width="0" opacity="0.55"/><rect x="61.5" y="667.95" width="117.0" height="74.10000000000001" rx="4" ry="4" fill="none" stroke="#3F6FB5" stroke-width="1.5" stroke-dasharray="5 4" opacity="1"/><rect x="268" y="640.0" width="254" height="130" rx="8" ry="8" fill="#F5F7FA" stroke="#E7EBF0" stroke-width="1.4" opacity="1"/><rect x="313.5" y="669.85" width="111.0" height="70.3" rx="8" ry="8" fill="#fff" stroke="#2B3440" stroke-width="1.6" opacity="0.49500000000000005"/><rect x="321.27" y="676.88" width="49.95" height="5.2725" rx="3" ry="3" fill="#3F6FB5" stroke="none" stroke-width="0" opacity="0.49500000000000005"/><rect x="321.27" y="689.534" width="42.18" height="28.12" rx="4" ry="4" fill="#AFC6E6" stroke="none" stroke-width="0" opacity="0.49500000000000005"/><circle cx="333.924" cy="697.97" r="3.0932" fill="#FFFFFF" opacity="0.42075"/><polygon points="325.488,712.5924 338.142,702.188 347.42159999999996,712.5924" fill="#3F6FB5" opacity="0.49500000000000005"/><polygon points="340.251,712.5924 350.796,705.0 360.0756,712.5924" fill="#3F6FB5" opacity="0.34650000000000003"/><rect x="371.22" y="690.94" width="44.400000000000006" height="3.515" rx="3" ry="3" fill="#9AA4B0" stroke="none" stroke-width="0" opacity="0.49500000000000005"/><rect x="371.22" y="699.3760000000001" width="44.400000000000006" height="3.515" rx="3" ry="3" fill="#9AA4B0" stroke="none" stroke-width="0" opacity="0.49500000000000005"/><rect x="371.22" y="707.812" width="44.400000000000006" height="3.515" rx="3" ry="3" fill="#9AA4B0" stroke="none" stroke-width="0" opacity="0.49500000000000005"/><rect x="313.5" y="669.85" width="111.0" height="70.3" rx="4" ry="4" fill="none" stroke="#3F6FB5" stroke-width="1.5" stroke-dasharray="5 4" opacity="0.9"/><circle cx="450.45" cy="728.45" r="9.350000000000001" fill="none" stroke="#2B3440" stroke-width="2.6"/><line x1="457.76" y1="735.76" x2="464.9" y2="742.9" stroke="#2B3440" stroke-width="3" stroke-linecap="round"/><rect x="558" y="640.0" width="254" height="130" rx="8" ry="8" fill="#F5F7FA" stroke="#E7EBF0" stroke-width="1.4" opacity="1"/><rect x="603.5" y="669.85" width="111.0" height="70.3" rx="8" ry="8" fill="#fff" stroke="#2B3440" stroke-width="1.6" opacity="0.49500000000000005"/><rect x="611.27" y="676.88" width="49.95" height="5.2725" rx="3" ry="3" fill="#3F6FB5" stroke="none" stroke-width="0" opacity="0.49500000000000005"/><rect x="611.27" y="689.534" width="42.18" height="28.12" rx="4" ry="4" fill="#AFC6E6" stroke="none" stroke-width="0" opacity="0.49500000000000005"/><circle cx="623.924" cy="697.97" r="3.0932" fill="#FFFFFF" opacity="0.42075"/><polygon points="615.4879999999999,712.5924 628.1419999999999,702.188 637.4216,712.5924" fill="#3F6FB5" opacity="0.49500000000000005"/><polygon points="630.251,712.5924 640.7959999999999,705.0 650.0756,712.5924" fill="#3F6FB5" opacity="0.34650000000000003"/><rect x="661.22" y="690.94" width="44.400000000000006" height="3.515" rx="3" ry="3" fill="#9AA4B0" stroke="none" stroke-width="0" opacity="0.49500000000000005"/><rect x="661.22" y="699.3760000000001" width="44.400000000000006" height="3.515" rx="3" ry="3" fill="#9AA4B0" stroke="none" stroke-width="0" opacity="0.49500000000000005"/><rect x="661.22" y="707.812" width="44.400000000000006" height="3.515" rx="3" ry="3" fill="#9AA4B0" stroke="none" stroke-width="0" opacity="0.49500000000000005"/><rect x="603.5" y="669.85" width="111.0" height="70.3" rx="4" ry="4" fill="none" stroke="#3F6FB5" stroke-width="1.5" stroke-dasharray="5 4" opacity="0.9"/><circle cx="743.0" cy="731.0" r="8.5" fill="none" stroke="#2B3440" stroke-width="2.4"/><circle cx="743.0" cy="731.0" r="2.04" fill="#2B3440"/><line x1="734.5" y1="731.0" x2="729.4" y2="731.0" stroke="#2B3440" stroke-width="2.4" stroke-linecap="round"/><line x1="751.5" y1="731.0" x2="756.6" y2="731.0" stroke="#2B3440" stroke-width="2.4" stroke-linecap="round"/><line x1="743.0" y1="722.5" x2="743.0" y2="717.4" stroke="#2B3440" stroke-width="2.4" stroke-linecap="round"/><line x1="743.0" y1="739.5" x2="743.0" y2="744.6" stroke="#2B3440" stroke-width="2.4" stroke-linecap="round"/><rect x="848" y="640.0" width="254" height="130" rx="8" ry="8" fill="#F5F7FA" stroke="#E7EBF0" stroke-width="1.4" opacity="1"/><rect x="893.5" y="669.85" width="111.0" height="70.3" rx="8" ry="8" fill="#fff" stroke="#2B3440" stroke-width="1.6" opacity="0.49500000000000005"/><rect x="901.27" y="676.88" width="49.95" height="5.2725" rx="3" ry="3" fill="#3F6FB5" stroke="none" stroke-width="0" opacity="0.49500000000000005"/><rect x="901.27" y="689.534" width="42.18" height="28.12" rx="4" ry="4" fill="#AFC6E6" stroke="none" stroke-width="0" opacity="0.49500000000000005"/><circle cx="913.924" cy="697.97" r="3.0932" fill="#FFFFFF" opacity="0.42075"/><polygon points="905.4879999999999,712.5924 918.1419999999999,702.188 927.4216,712.5924" fill="#3F6FB5" opacity="0.49500000000000005"/><polygon points="920.251,712.5924 930.7959999999999,705.0 940.0756,712.5924" fill="#3F6FB5" opacity="0.34650000000000003"/><rect x="951.22" y="690.94" width="44.400000000000006" height="3.515" rx="3" ry="3" fill="#9AA4B0" stroke="none" stroke-width="0" opacity="0.49500000000000005"/><rect x="951.22" y="699.3760000000001" width="44.400000000000006" height="3.515" rx="3" ry="3" fill="#9AA4B0" stroke="none" stroke-width="0" opacity="0.49500000000000005"/><rect x="951.22" y="707.812" width="44.400000000000006" height="3.515" rx="3" ry="3" fill="#9AA4B0" stroke="none" stroke-width="0" opacity="0.49500000000000005"/><rect x="893.5" y="669.85" width="111.0" height="70.3" rx="4" ry="4" fill="none" stroke="#3F6FB5" stroke-width="1.5" stroke-dasharray="5 4" opacity="0.9"/><line x1="1023.65" y1="740.35" x2="1036.06" y2="727.94" stroke="#2B3440" stroke-width="5.1" stroke-linecap="round"/><path d="M1042.86,719.78 a6.12,6.12 0 1 1 -5.78,2.04" fill="none" stroke="#2B3440" stroke-width="4.08" stroke-linecap="round"/></svg>