<svg xmlns="http://www.w3.org/2000/svg" viewBox="0 0 1200 770" width="1200" height="770"><defs><marker id="aGrey" markerWidth="9" markerHeight="9" refX="6.5" refY="3.2" orient="auto" markerUnits="userSpaceOnUse"><path d="M0,0 L7,3.2 L0,6.4 Z" fill="#5A6675"/></marker><marker id="aBlue" markerWidth="9" markerHeight="9" refX="6.5" refY="3.2" orient="auto" markerUnits="userSpaceOnUse"><path d="M0,0 L7,3.2 L0,6.4 Z" fill="#3F6FB5"/></marker><marker id="aOrange" markerWidth="9" markerHeight="9" refX="6.5" refY="3.2" orient="auto" markerUnits="userSpaceOnUse"><path d="M0,0 L7,3.2 L0,6.4 Z" fill="#E07F2C"/></marker></defs><rect width="1200" height="770" fill="#FFFFFF"/><rect x="60" y="300" width="220" height="150" rx="8" ry="8" fill="#fff" stroke="#2B3440" stroke-width="2.2" opacity="1"/><rect x="75.4" y="315.0" width="99.0" height="11.25" rx="3" ry="3" fill="#5A6675" stroke="none" stroke-width="0" opacity="1"/><rect x="75.4" y="342.0" width="83.6" height="60.0" rx="4" ry="4" fill="#E7EBF0" stroke="none" stroke-width="0" opacity="1"/><circle cx="100.48" cy="360.0" r="6.6" fill="#FFFFFF" opacity="0.85"/><polygon points="83.76,391.2 108.84,369.0 127.232,391.2" fill="#5A6675" opacity="1"/><polygon points="113.02000000000001,391.2 133.92,375.0 152.312,391.2" fill="#5A6675" opacity="0.7"/><rect x="174.4" y="345.0" width="88.0" height="7.5" rx="3" ry="3" fill="#9AA4B0" stroke="none" stroke-width="0" opacity="1"/><rect x="174.4" y="363.0" width="88.0" height="7.5" rx="3" ry="3" fill="#9AA4B0" stroke="none" stroke-width="0" opacity="1"/><rect x="174.4" y="381.0" width="88.0" height="7.5" rx="3" ry="3" fill="#9AA4B0" stroke="none" stroke-width="0" opacity="1"/><text x="170" y="478" font-family="Helvetica Neue, Helvetica, Arial, sans-serif" font-size="19" fill="#5A6675" text-anchor="middle" font-weight="400" font-style="normal">input slide</text><polygon points="430,303 502,375 430,447 358,375" fill="#F5F7FA" stroke="#2B3440" stroke-width="2.2"/><text x="430" y="371" font-family="Helvetica Neue, Helvetica, Arial, sans-serif" font-size="17" fill="#2B3440" text-anchor="middle" font-weight="400" font-style="normal">perception /</text><text x="430" y="391" font-family="Helvetica Neue, Helvetica, Arial, sans-serif" font-size="17" fill="#2B3440" text-anchor="middle" font-weight="400" font-style="normal">reasoning</text><text x="430" y="409" font-family="Helvetica Neue, Helvetica, Arial, sans-serif" font-size="17" fill="#2B3440" text-anchor="middle" font-weight="600" font-style="normal">diagnosis</text><path d="M285,375 L352,375" fill="none" stroke="#5A6675" stroke-width="3" stroke-linejoin="round" stroke-linecap="round" marker-end="url(#aGrey)"/><path d="M430,303 V160 H594" fill="none" stroke="#3F6FB5" stroke-width="3" stroke-linejoin="round" stroke-linecap="round" marker-end="url(#aBlue)"/><rect x="600" y="95" width="170" height="130" rx="12" ry="12" fill="#fff" stroke="#3F6FB5" stroke-width="2.4" opacity="1"/><line x1="651.0" y1="132.6" x2="719.0" y2="132.6" stroke="#3F6FB5" stroke-width="1" stroke-linecap="butt" stroke-dasharray="3 4"/><line x1="668.0" y1="115.6" x2="668.0" y2="183.6" stroke="#3F6FB5" stroke-width="1" stroke-linecap="butt" stroke-dasharray="3 4"/><line x1="651.0" y1="149.6" x2="719.0" y2="149.6" stroke="#3F6FB5" stroke-width="1" stroke-linecap="butt" stroke-dasharray="3 4"/><line x1="685.0" y1="115.6" x2="685.0" y2="183.6" stroke="#3F6FB5" stroke-width="1" stroke-linecap="butt" stroke-dasharray="3 4"/><line x1="651.0" y1="166.6" x2="719.0" y2="166.6" stroke="#3F6FB5" stroke-width="1" stroke-linecap="butt" stroke-dasharray="3 4"/><line x1="702.0" y1="115.6" x2="702.0" y2="183.6" stroke="#3F6FB5" stroke-width="1" stroke-linecap="butt" stroke-dasharray="3 4"/><polygon points="661.2,173.39999999999998 708.8,173.39999999999998 661.2,130.89999999999998" fill="none" stroke="#3F6FB5" stroke-width="2.4" stroke-linejoin="round"/><line x1="673.1" y1="173.39999999999998" x2="673.1" y2="168.3" stroke="#3F6FB5" stroke-width="1.6" stroke-linecap="round"/><line x1="685.0" y1="173.39999999999998" x2="685.0" y2="168.3" stroke="#3F6FB5" stroke-width="1.6" stroke-linecap="round"/><line x1="696.9000000000001" y1="173.39999999999998" x2="696.9000000000001" y2="168.3" stroke="#3F6FB5" stroke-width="1.6" stroke-linecap="round"/><text x="685.0" y="251" font-family="Helvetica Neue, Helvetica, Arial, sans-serif" font-size="19" fill="#3F6FB5" text-anchor="middle" font-weight="600" font-style="normal">symbolic linter</text><text x="685.0" y="273" font-family="Helvetica Neue, Helvetica, Arial, sans-serif" font-size="16" fill="#5A6675" text-anchor="middle" font-weight="400" font-style="normal">declared geometry</text><path d="M430,447 V570 H594" fill="none" stroke="#E07F2C" stroke-width="3" stroke-linejoin="round" stroke-linecap="round" marker-end="url(#aOrange)"/><rect x="600" y="500" width="170" height="135" rx="12" ry="12" fill="#fff" stroke="#E07F2C" stroke-width="2.4" opacity="1"/><path d="M659.0,534 Q685.0,511.9 711.0,534 Q685.0,556.1 659.0,534 Z" fill="none" stroke="#E07F2C" stroke-width="2.4"/><circle cx="685.0" cy="534" r="8.84" fill="#E07F2C"/><rect x="637.4" y="558" width="95.2" height="56.699999999999996" rx="8" ry="8" fill="#fff" stroke="#2B3440" stroke-width="1.6" opacity="1"/><rect x="644.064" y="563.67" width="42.84" height="4.2524999999999995" rx="3" ry="3" fill="#E07F2C" stroke="none" stroke-width="0" opacity="1"/><rect x="644.064" y="573.876" width="36.176" height="22.68" rx="4" ry="4" fill="#F2C79A" stroke="none" stroke-width="0" opacity="1"/><circle cx="654.9168" cy="580.68" r="2.4948" fill="#FFFFFF" opacity="0.85"/><polygon points="647.6816,592.4736 658.5344,584.082 666.49312,592.4736" fill="#E07F2C" opacity="1"/><polygon points="660.3432,592.4736 669.3872,586.35 677.34592,592.4736" fill="#E07F2C" opacity="0.7"/><rect x="686.904" y="575.01" width="38.080000000000005" height="2.835" rx="3" ry="3" fill="#9AA4B0" stroke="none" stroke-width="0" opacity="1"/><rect x="686.904" y="581.814" width="38.080000000000005" height="2.835" rx="3" ry="3" fill="#9AA4B0" stroke="none" stroke-width="0" opacity="1"/><text x="685.0" y="661" font-family="Helvetica Neue, Helvetica, Arial, sans-serif" font-size="19" fill="#E07F2C" text-anchor="middle" font-weight="600" font-style="normal">re-elicited VLM</text><text x="685.0" y="683" font-family="Helvetica Neue, Helvetica, Arial, sans-serif" font-size="16" fill="#5A6675" text-anchor="middle" font-weight="400" font-style="normal">format-suppressed</text><path d="M770,160 H1067.5 V289" fill="none" stroke="#3F6FB5" stroke-width="3" stroke-linejoin="round" stroke-linecap="round" marker-end="url(#aBlue)"/><path d="M770,567 H1067.5 V461" fill="none" stroke="#E07F2C" stroke-width="3" stroke-linejoin="round" stroke-linecap="round" marker-end="url(#aOrange)"/><rect x="980" y="295" width="175" height="160" rx="12" ry="12" fill="#F5F7FA" stroke="#2B3440" stroke-width="2.4" opacity="1"/><line x1="1067.5" y1="328.0" x2="1067.5" y2="396.4" stroke="#2B3440" stroke-width="2.6" stroke-linecap="round"/><line x1="1029.5" y1="335.59999999999997" x2="1105.5" y2="335.59999999999997" stroke="#2B3440" stroke-width="2.6" stroke-linecap="round"/><circle cx="1067.5" cy="328.0" r="3.2" fill="#2B3440"/><line x1="1046.6" y1="396.4" x2="1088.4" y2="396.4" stroke="#2B3440" stroke-width="2.6" stroke-linecap="round"/><line x1="1029.5" y1="335.59999999999997" x2="1017.34" y2="360.3" stroke="#2B3440" stroke-width="1.6" stroke-linecap="round"/><line x1="1029.5" y1="335.59999999999997" x2="1041.66" y2="360.3" stroke="#2B3440" stroke-width="1.6" stroke-linecap="round"/><path d="M1016.58,360.3 Q1029.5,373.59999999999997 1042.42,360.3 Z" fill="#3F6FB5" opacity="0.85"/><line x1="1105.5" y1="335.59999999999997" x2="1093.34" y2="360.3" stroke="#2B3440" stroke-width="1.6" stroke-linecap="round"/><line x1="1105.5" y1="335.59999999999997" x2="1117.66" y2="360.3" stroke="#2B3440" stroke-width="1.6" stroke-linecap="round"/><path d="M1092.58,360.3 Q1105.5,373.59999999999997 1118.42,360.3 Z" fill="#E07F2C" opacity="0.85"/><text x="1067.5" y="481" font-family="Helvetica Neue, Helvetica, Arial, sans-serif" font-size="20" fill="#2B3440" text-anchor="middle" font-weight="600" font-style="normal">hybrid critic</text><text x="600.0" y="44" font-family="Helvetica Neue, Helvetica, Arial, sans-serif" font-size="23" fill="#2B3440" text-anchor="middle" font-weight="600" font-style="normal">Diagnosis routes each defect to its bottleneck-appropriate engine</text><text x="600.0" y="748" font-family="Helvetica Neue, Helvetica, Arial, sans-serif" font-size="16" fill="#5A6675" text-anchor="middle" font-weight="400" font-style="italic">G7 render-overflow (legal box, overflowing pixels) is linter-blind by construction; only a rendered-quality read-out catches it</text></svg>